<?xml version="1.0" encoding="utf-8"?>
<!-- Generator: Adobe Illustrator 26.0.1, SVG Export Plug-In . SVG Version: 6.00 Build 0)  -->
<svg version="1.1" id="Capa_1" xmlns="http://www.w3.org/2000/svg" xmlns:xlink="http://www.w3.org/1999/xlink" x="0px" y="0px"
	 viewBox="0 0 1920 1080" style="enable-background:new 0 0 1920 1080;" xml:space="preserve">
<style type="text/css">
	.st0{fill:#F4B26F;stroke:#000000;stroke-width:4;stroke-miterlimit:10;}
	.st1{fill:#FFFFFF;stroke:#000000;stroke-width:4;stroke-linecap:round;stroke-linejoin:round;stroke-miterlimit:10;}
	.st2{fill:#4D4D4D;stroke:#000000;stroke-width:4;stroke-linecap:round;stroke-linejoin:round;stroke-miterlimit:10;}
	.st3{fill:none;stroke:#FFFFFF;stroke-width:4;stroke-linecap:round;stroke-linejoin:round;stroke-miterlimit:10;}
	.st4{fill:none;stroke:#000000;stroke-width:4;stroke-linecap:round;stroke-linejoin:round;stroke-miterlimit:10;}
</style>
<path class="st0" d="M752.2,426.52c-10.42-23.03-16.23-48.6-16.23-75.54c0-101.2,82.04-183.25,183.25-183.25
	c101.2,0,183.25,82.05,183.25,183.25c0,27.09-5.87,52.79-16.42,75.92"/>
<line class="st1" x1="1147.6" y1="412.18" x2="1110.21" y2="402.17"/>
<line class="st1" x1="1147.6" y1="289.79" x2="1110.21" y2="299.81"/>
<line class="st1" x1="1086.4" y1="183.8" x2="1059.04" y2="211.17"/>
<line class="st1" x1="980.41" y1="122.61" x2="970.39" y2="159.99"/>
<line class="st1" x1="858.02" y1="122.61" x2="868.04" y2="159.99"/>
<line class="st1" x1="752.03" y1="183.8" x2="779.4" y2="211.17"/>
<line class="st1" x1="690.84" y1="289.79" x2="728.22" y2="299.81"/>
<line class="st1" x1="690.84" y1="412.18" x2="728.22" y2="402.17"/>
<line class="st1" x1="919.22" y1="122.61" x2="919.22" y2="135.44"/>
<line class="st1" x1="919.22" y1="143.16" x2="919.22" y2="150.18"/>
<line class="st1" x1="805.03" y1="153.21" x2="811.44" y2="164.32"/>
<line class="st1" x1="815.3" y1="171.01" x2="818.82" y2="177.09"/>
<line class="st1" x1="721.43" y1="236.8" x2="732.55" y2="243.21"/>
<line class="st1" x1="739.24" y1="247.08" x2="745.32" y2="250.59"/>
<line class="st1" x1="690.84" y1="350.99" x2="703.67" y2="350.99"/>
<line class="st1" x1="711.39" y1="350.99" x2="718.41" y2="350.99"/>
<line class="st1" x1="1147.6" y1="350.99" x2="1134.77" y2="350.99"/>
<line class="st1" x1="1127.04" y1="350.99" x2="1120.02" y2="350.99"/>
<line class="st1" x1="1117" y1="236.8" x2="1105.89" y2="243.21"/>
<line class="st1" x1="1099.2" y1="247.08" x2="1093.12" y2="250.59"/>
<line class="st1" x1="1033.41" y1="153.21" x2="1026.99" y2="164.32"/>
<line class="st1" x1="1023.13" y1="171.01" x2="1019.62" y2="177.09"/>
<path class="st2" d="M1495.78,645.37c-70.31-70.61-141.68-140.46-211.53-211.53c-0.09,0.09,3.94,3.94,0,0
	c-41.76,43.73-86.56,84.73-128.42,128.42l-83.11,83.11L1495.78,645.37z"/>
<path class="st2" d="M1308.11,645.37c-129.37-129.93-260.7-258.47-389.24-389.24c-0.16,0.16,7.24,7.24,0,0
	c-76.84,80.47-159.27,155.92-236.31,236.31L529.63,645.37L1308.11,645.37z"/>
<polygon class="st1" points="1088.34,425.6 1009.79,504.15 919.57,413.91 829.34,504.15 750.1,424.91 918.87,256.13 "/>
<polygon class="st1" points="1376.35,525.94 1333.66,568.63 1284.63,519.58 1235.6,568.63 1192.53,525.56 1284.25,433.84 "/>
<path class="st2" d="M765.72,645.37c-70.31-70.61-141.68-140.46-211.53-211.53c-0.09,0.09,3.94,3.94,0,0
	c-41.76,43.73-86.56,84.73-128.42,128.42l-83.11,83.11L765.72,645.37z"/>
<polygon class="st1" points="646.28,525.94 603.6,568.63 554.56,519.58 505.53,568.63 462.46,525.56 554.18,433.84 "/>
<g>
	<polyline class="st3" points="752.96,514.36 786.52,480.81 820.07,514.36 	"/>
	<polyline class="st3" points="752.96,541.09 786.52,507.54 820.07,541.09 	"/>
	<polyline class="st3" points="752.96,567.82 786.52,534.26 820.07,567.82 	"/>
	<polyline class="st3" points="752.96,594.54 786.52,560.99 820.07,594.54 	"/>
	<polyline class="st3" points="752.96,621.27 786.52,587.72 820.07,621.27 	"/>
	<line class="st3" x1="786.52" y1="480.81" x2="786.52" y2="644.96"/>
</g>
<polyline class="st3" points="413.66,566.34 447.21,532.78 480.77,566.34 "/>
<polyline class="st3" points="413.66,593.07 447.21,559.51 480.77,593.07 "/>
<polyline class="st3" points="413.66,619.79 447.21,586.24 480.77,619.79 "/>
<line class="st3" x1="447.21" y1="532.78" x2="447.21" y2="643.48"/>
<g>
	<polyline class="st4" points="1458.1,514.78 1491.66,481.22 1525.21,514.78 	"/>
	<polyline class="st4" points="1458.1,541.51 1491.66,507.95 1525.21,541.51 	"/>
	<polyline class="st4" points="1458.1,568.23 1491.66,534.68 1525.21,568.23 	"/>
	<polyline class="st4" points="1458.1,594.96 1491.66,561.4 1525.21,594.96 	"/>
	<line class="st4" x1="1491.66" y1="481.22" x2="1491.66" y2="645.37"/>
</g>
<g>
	<polyline class="st3" points="848.25,567.82 881.8,534.26 915.36,567.82 	"/>
	<polyline class="st3" points="848.25,594.54 881.8,560.99 915.36,594.54 	"/>
	<polyline class="st3" points="848.25,621.27 881.8,587.72 915.36,621.27 	"/>
	<line class="st3" x1="881.8" y1="534.26" x2="881.8" y2="644.96"/>
</g>
<g>
	<polyline class="st4" points="327.4,568.23 360.95,534.68 394.51,568.23 	"/>
	<polyline class="st4" points="327.4,594.96 360.95,561.4 394.51,594.96 	"/>
	<polyline class="st4" points="327.4,621.69 360.95,588.13 394.51,621.69 	"/>
	<line class="st4" x1="360.95" y1="534.68" x2="360.95" y2="645.37"/>
</g>
<g>
	<polyline class="st3" points="1072.13,567.82 1105.69,534.26 1139.24,567.82 	"/>
	<polyline class="st3" points="1072.13,594.54 1105.69,560.99 1139.24,594.54 	"/>
	<polyline class="st3" points="1072.13,621.27 1105.69,587.72 1139.24,621.27 	"/>
	<line class="st3" x1="1105.69" y1="534.26" x2="1105.69" y2="644.96"/>
</g>
<line class="st4" x1="342.65" y1="665.15" x2="1494.16" y2="665.15"/>
<path class="st4" d="M363.46,686.48"/>
<path class="st4" d="M363.46,707.8"/>
<path class="st4" d="M363.46,729.13"/>
<path class="st4" d="M363.46,750.45"/>
<path class="st4" d="M363.46,771.78"/>
<path class="st4" d="M363.46,793.1"/>
<path class="st4" d="M363.46,814.43"/>
<path class="st4" d="M363.46,835.75"/>
<path class="st4" d="M363.46,857.08"/>
<line class="st4" x1="342.65" y1="686.48" x2="1494.16" y2="686.48"/>
<line class="st4" x1="342.65" y1="707.8" x2="1494.16" y2="707.8"/>
<line class="st4" x1="342.65" y1="729.13" x2="1494.16" y2="729.13"/>
<line class="st4" x1="342.65" y1="750.45" x2="1494.16" y2="750.45"/>
<line class="st4" x1="342.65" y1="771.78" x2="1494.16" y2="771.78"/>
<line class="st4" x1="342.65" y1="793.1" x2="1494.16" y2="793.1"/>
<line class="st4" x1="342.65" y1="814.43" x2="1494.16" y2="814.43"/>
</svg>
