<?xml version="1.0" encoding="utf-8"?>
<!-- Generator: Adobe Illustrator 26.0.1, SVG Export Plug-In . SVG Version: 6.00 Build 0)  -->
<svg version="1.1" id="Capa_1" xmlns="http://www.w3.org/2000/svg" xmlns:xlink="http://www.w3.org/1999/xlink" x="0px" y="0px"
	 viewBox="0 0 1920 1080" style="enable-background:new 0 0 1920 1080;" xml:space="preserve">
<style type="text/css">
	.st0{fill:none;stroke:#000000;stroke-width:15;stroke-linecap:round;stroke-linejoin:round;stroke-miterlimit:10;}
	.st1{fill:#FFFFFF;stroke:#000000;stroke-width:4;stroke-linecap:round;stroke-linejoin:round;stroke-miterlimit:10;}
</style>
<g>
	<polyline class="st0" points="689.64,143.75 798.98,24.38 908.32,143.75 	"/>
	<polyline class="st0" points="689.64,238.83 798.98,119.46 908.32,238.83 	"/>
	<polyline class="st0" points="689.64,333.9 798.98,214.53 908.32,333.9 	"/>
	<polyline class="st0" points="689.64,428.98 798.98,309.61 908.32,428.98 	"/>
	<line class="st0" x1="798.98" y1="37.66" x2="798.98" y2="513.24"/>
	<g>
		<path class="st0" d="M332.5,354.96"/>
		<path class="st0" d="M332.5,354.96"/>
	</g>
	<polyline class="st0" points="1310.6,145.23 1419.94,25.86 1529.28,145.23 	"/>
	<polyline class="st0" points="1310.6,240.3 1419.94,120.93 1529.28,240.3 	"/>
	<polyline class="st0" points="1310.6,335.38 1419.94,216.01 1529.28,335.38 	"/>
	<line class="st0" x1="1419.94" y1="25.86" x2="1419.94" y2="514.72"/>
	<polyline class="st0" points="1000.12,238.83 1109.46,119.46 1218.8,238.83 	"/>
	<polyline class="st0" points="1000.12,333.9 1109.46,214.53 1218.8,333.9 	"/>
	<polyline class="st0" points="1000.12,428.98 1109.46,309.61 1218.8,428.98 	"/>
	<line class="st0" x1="1109.46" y1="119.46" x2="1109.46" y2="513.24"/>
	<polyline class="st0" points="379.16,333.9 488.5,214.53 597.83,333.9 	"/>
	<polyline class="st0" points="379.16,428.98 488.5,309.61 597.83,428.98 	"/>
	<line class="st0" x1="488.5" y1="222.75" x2="488.5" y2="513.24"/>
</g>
<path class="st1" d="M155.82,781.04"/>
<path class="st1" d="M155.82,904.3"/>
<path class="st1" d="M270.83,643.48"/>
<path class="st1" d="M155.82,842.67"/>
<path class="st1" d="M41.05,374.78"/>
<line class="st0" x1="41.05" y1="522.54" x2="1867.39" y2="522.54"/>
<g>
	<g>
		<path d="M400.55,721.24c-5.83-3.16-10.36-7.64-13.59-13.42l18.73-14.88c2.01,2.8,4.42,4.96,7.23,6.48
			c2.81,1.52,5.76,2.28,8.82,2.28c4.4,0,7.81-1.69,10.2-5.07c2.4-3.38,3.6-8.14,3.6-14.29v-90.49h23.75v90.58
			c0,9.19-1.52,17.04-4.56,23.56c-3.04,6.51-7.46,11.47-13.26,14.88c-5.8,3.41-12.8,5.11-20.99,5.11
			C413.03,725.99,406.38,724.41,400.55,721.24z"/>
		<path d="M507.25,719.92c-6.72-4.05-11.92-9.77-15.6-17.17c-3.68-7.4-5.52-15.96-5.52-25.7v-37.62c0-9.74,1.84-18.31,5.52-25.7
			c3.68-7.4,8.88-13.12,15.6-17.17c6.72-4.05,14.48-6.07,23.29-6.07c8.81,0,16.57,2.03,23.29,6.07c6.72,4.05,11.92,9.77,15.6,17.17
			c3.68,7.4,5.52,15.96,5.52,25.7v37.62c0,9.74-1.84,18.31-5.52,25.7c-3.68,7.4-8.88,13.12-15.6,17.17
			c-6.72,4.05-14.48,6.07-23.29,6.07C521.73,725.99,513.96,723.97,507.25,719.92z M541.41,698.09c3.12-1.92,5.53-4.64,7.23-8.17
			c1.7-3.53,2.55-7.61,2.55-12.24v-38.9c0-4.62-0.85-8.7-2.55-12.24c-1.7-3.53-4.11-6.25-7.23-8.17c-3.12-1.92-6.75-2.88-10.87-2.88
			c-4.13,0-7.75,0.96-10.87,2.88c-3.12,1.92-5.53,4.64-7.23,8.17c-1.7,3.53-2.55,7.61-2.55,12.24v38.9c0,4.63,0.85,8.71,2.55,12.24
			c1.7,3.53,4.11,6.25,7.23,8.17c3.12,1.92,6.75,2.88,10.87,2.88C534.66,700.97,538.29,700.01,541.41,698.09z"/>
		<path d="M622.97,724.07c-5.55-1.28-10.76-3.15-15.64-5.62c-4.88-2.47-9.24-5.43-13.09-8.9l10.62-20.63
			c4.68,4.2,10.09,7.44,16.23,9.72c6.13,2.28,12.43,3.42,18.9,3.42c7.47,0,13.27-1.38,17.4-4.16c4.13-2.77,6.19-6.68,6.19-11.73
			v-0.09c0-3.53-0.92-6.33-2.76-8.4c-1.84-2.07-4.24-3.59-7.19-4.57c-2.96-0.97-6.75-1.86-11.37-2.65
			c-0.17-0.06-0.32-0.09-0.46-0.09c-0.14,0-0.29-0.03-0.46-0.09l-1.84-0.27c-8.14-1.4-14.89-3.15-20.24-5.25
			c-5.35-2.1-9.9-5.78-13.63-11.05c-3.74-5.26-5.6-12.74-5.6-22.42v-0.09c0-8.58,1.76-15.92,5.27-22.01
			c3.51-6.09,8.61-10.73,15.31-13.92c6.69-3.2,14.77-4.79,24.25-4.79c4.35,0,8.79,0.55,13.34,1.64c4.54,1.1,8.99,2.68,13.34,4.75
			s8.47,4.56,12.38,7.49l-9.7,21.18c-4.68-3.53-9.58-6.27-14.68-8.22s-9.99-2.92-14.68-2.92c-7.03,0-12.46,1.26-16.31,3.79
			c-3.85,2.53-5.77,6.07-5.77,10.64v0.09c0,3.83,1,6.86,3.01,9.08c2.01,2.22,4.49,3.85,7.44,4.89c2.95,1.04,7.11,2.13,12.46,3.29
			c0.22,0.06,0.45,0.11,0.67,0.14c0.22,0.03,0.45,0.08,0.67,0.14c0.33,0.06,0.65,0.14,0.96,0.23c0.31,0.09,0.63,0.17,0.96,0.23
			c7.69,1.64,14.12,3.64,19.28,5.98c5.16,2.34,9.46,6.12,12.92,11.32c3.46,5.2,5.19,12.31,5.19,21.32v0.18
			c0,8.46-1.81,15.71-5.44,21.73c-3.62,6.03-8.91,10.62-15.85,13.79c-6.94,3.17-15.29,4.75-25.05,4.75
			C634.19,725.99,628.52,725.35,622.97,724.07z"/>
		<path d="M709.8,591.86h22.92v132.76H709.8V591.86z M720.42,646.73h70.84v24.11h-70.84V646.73z M776.38,591.86h22.92v132.76h-22.92
			V591.86z"/>
		<path d="M898.39,724.07c-5.55-1.28-10.76-3.15-15.64-5.62c-4.88-2.47-9.24-5.43-13.09-8.9l10.62-20.63
			c4.68,4.2,10.09,7.44,16.23,9.72c6.13,2.28,12.43,3.42,18.9,3.42c7.47,0,13.27-1.38,17.4-4.16c4.13-2.77,6.19-6.68,6.19-11.73
			v-0.09c0-3.53-0.92-6.33-2.76-8.4c-1.84-2.07-4.24-3.59-7.19-4.57c-2.96-0.97-6.75-1.86-11.37-2.65
			c-0.17-0.06-0.32-0.09-0.46-0.09c-0.14,0-0.29-0.03-0.46-0.09l-1.84-0.27c-8.14-1.4-14.89-3.15-20.24-5.25
			c-5.35-2.1-9.9-5.78-13.63-11.05c-3.74-5.26-5.6-12.74-5.6-22.42v-0.09c0-8.58,1.76-15.92,5.27-22.01
			c3.51-6.09,8.61-10.73,15.31-13.92c6.69-3.2,14.77-4.79,24.25-4.79c4.35,0,8.79,0.55,13.34,1.64c4.54,1.1,8.99,2.68,13.34,4.75
			s8.47,4.56,12.38,7.49l-9.7,21.18c-4.68-3.53-9.58-6.27-14.68-8.22s-9.99-2.92-14.68-2.92c-7.03,0-12.46,1.26-16.31,3.79
			c-3.85,2.53-5.77,6.07-5.77,10.64v0.09c0,3.83,1,6.86,3.01,9.08c2.01,2.22,4.49,3.85,7.44,4.89c2.95,1.04,7.11,2.13,12.46,3.29
			c0.22,0.06,0.45,0.11,0.67,0.14c0.22,0.03,0.45,0.08,0.67,0.14c0.33,0.06,0.65,0.14,0.96,0.23c0.31,0.09,0.63,0.17,0.96,0.23
			c7.69,1.64,14.12,3.64,19.28,5.98c5.16,2.34,9.46,6.12,12.92,11.32c3.46,5.2,5.19,12.31,5.19,21.32v0.18
			c0,8.46-1.81,15.71-5.44,21.73c-3.62,6.03-8.91,10.62-15.85,13.79c-6.94,3.17-15.29,4.75-25.05,4.75
			C909.61,725.99,903.94,725.35,898.39,724.07z"/>
		<path d="M985.22,591.86h22.92v132.76h-22.92V591.86z M993.5,591.86h73.18v24.11H993.5V591.86z M993.5,646.64h63.98v24.11H993.5
			V646.64z M993.5,700.51h73.18v24.11H993.5V700.51z"/>
		<path d="M1090.16,591.86h28.02l45.25,101.72l-2.01,2.37V591.86h21.91v132.67h-28.18l-45.08-100.17l2.01-2.37v102.54h-21.91V591.86
			z"/>
		<path d="M1270.54,664.99v24.11h-59.55v-24.11H1270.54z"/>
	</g>
</g>
<line class="st0" x1="41.05" y1="888.49" x2="1867.39" y2="888.49"/>
<line class="st0" x1="41.05" y1="940.3" x2="1867.39" y2="940.3"/>
<line class="st0" x1="41.05" y1="992.11" x2="1867.39" y2="992.11"/>
<line class="st0" x1="41.05" y1="1043.93" x2="1867.39" y2="1043.93"/>
</svg>
