<?xml version="1.0" encoding="utf-8"?>
<!-- Generator: Adobe Illustrator 26.0.1, SVG Export Plug-In . SVG Version: 6.00 Build 0)  -->
<svg version="1.1" id="Capa_1" xmlns="http://www.w3.org/2000/svg" xmlns:xlink="http://www.w3.org/1999/xlink" x="0px" y="0px"
	 viewBox="0 0 1920 1080" style="enable-background:new 0 0 1920 1080;" xml:space="preserve">
<style type="text/css">
	.st0{fill:none;stroke:#000000;stroke-width:15;stroke-linecap:round;stroke-linejoin:round;stroke-miterlimit:10;}
	.st1{fill:#FFFFFF;stroke:#000000;stroke-width:4;stroke-linecap:round;stroke-linejoin:round;stroke-miterlimit:10;}
</style>
<g>
	<polyline class="st0" points="689.64,143.75 798.98,24.38 908.32,143.75 	"/>
	<polyline class="st0" points="689.64,238.83 798.98,119.46 908.32,238.83 	"/>
	<polyline class="st0" points="689.64,333.9 798.98,214.53 908.32,333.9 	"/>
	<polyline class="st0" points="689.64,428.98 798.98,309.61 908.32,428.98 	"/>
	<line class="st0" x1="798.98" y1="37.66" x2="798.98" y2="513.24"/>
	<g>
		<path class="st0" d="M332.5,354.96"/>
		<path class="st0" d="M332.5,354.96"/>
	</g>
	<polyline class="st0" points="1310.6,145.23 1419.94,25.86 1529.28,145.23 	"/>
	<polyline class="st0" points="1310.6,240.3 1419.94,120.93 1529.28,240.3 	"/>
	<polyline class="st0" points="1310.6,335.38 1419.94,216.01 1529.28,335.38 	"/>
	<line class="st0" x1="1419.94" y1="25.86" x2="1419.94" y2="514.72"/>
	<polyline class="st0" points="1000.12,238.83 1109.46,119.46 1218.8,238.83 	"/>
	<polyline class="st0" points="1000.12,333.9 1109.46,214.53 1218.8,333.9 	"/>
	<polyline class="st0" points="1000.12,428.98 1109.46,309.61 1218.8,428.98 	"/>
	<line class="st0" x1="1109.46" y1="119.46" x2="1109.46" y2="513.24"/>
	<polyline class="st0" points="379.16,333.9 488.5,214.53 597.83,333.9 	"/>
	<polyline class="st0" points="379.16,428.98 488.5,309.61 597.83,428.98 	"/>
	<line class="st0" x1="488.5" y1="222.75" x2="488.5" y2="513.24"/>
</g>
<path class="st1" d="M155.82,781.04"/>
<path class="st1" d="M155.82,904.3"/>
<path class="st1" d="M270.83,643.48"/>
<path class="st1" d="M155.82,842.67"/>
<path class="st1" d="M41.05,374.78"/>
<line class="st0" x1="41.05" y1="522.54" x2="1867.39" y2="522.54"/>
<g>
	<g>
		<path d="M221.31,747.01c-7.18-4.79-12.77-11.56-16.75-20.31l23.09-22.52c2.47,4.24,5.45,7.51,8.92,9.81
			c3.47,2.3,7.1,3.46,10.88,3.46c5.43,0,9.62-2.56,12.58-7.67c2.95-5.11,4.43-12.32,4.43-21.62V551.21h29.28v137.08
			c0,13.91-1.87,25.79-5.62,35.65c-3.75,9.86-9.19,17.37-16.34,22.52c-7.15,5.16-15.77,7.74-25.88,7.74
			C236.69,754.2,228.5,751.81,221.31,747.01z"/>
		<path d="M350.72,745.01c-8.28-6.13-14.69-14.79-19.23-25.98c-4.54-11.19-6.8-24.16-6.8-38.9V623.2c0-14.74,2.27-27.71,6.8-38.9
			c4.54-11.19,10.94-19.85,19.23-25.98c8.28-6.12,17.85-9.19,28.71-9.19c10.86,0,20.43,3.06,28.71,9.19
			c8.28,6.13,14.69,14.79,19.23,25.98c4.54,11.19,6.8,24.16,6.8,38.9v56.93c0,14.74-2.27,27.71-6.8,38.9
			c-4.54,11.19-10.95,19.85-19.23,25.98c-8.28,6.13-17.85,9.19-28.71,9.19C368.57,754.2,359,751.14,350.72,745.01z M392.83,711.99
			c3.85-2.9,6.82-7.02,8.92-12.37c2.1-5.34,3.14-11.51,3.14-18.52v-58.87c0-7-1.05-13.17-3.14-18.52c-2.1-5.34-5.07-9.47-8.92-12.37
			c-3.85-2.9-8.32-4.35-13.4-4.35c-5.09,0-9.55,1.45-13.4,4.35c-3.85,2.9-6.82,7.03-8.92,12.37c-2.1,5.34-3.14,11.52-3.14,18.52
			v58.87c0,7,1.05,13.17,3.14,18.52c2.1,5.34,5.07,9.47,8.92,12.37c3.85,2.9,8.31,4.35,13.4,4.35
			C384.51,716.34,388.98,714.89,392.83,711.99z"/>
		<path d="M491.26,751.3c-6.84-1.93-13.26-4.77-19.28-8.5c-6.01-3.73-11.39-8.22-16.13-13.47l13.09-31.23
			c5.77,6.36,12.44,11.26,20,14.72c7.56,3.46,15.32,5.18,23.3,5.18c9.21,0,16.36-2.09,21.44-6.29c5.09-4.19,7.63-10.11,7.63-17.76
			v-0.14c0-5.34-1.13-9.58-3.4-12.71c-2.27-3.13-5.22-5.43-8.87-6.91c-3.64-1.47-8.32-2.81-14.02-4.01
			c-0.21-0.09-0.4-0.14-0.57-0.14c-0.17,0-0.36-0.04-0.57-0.14l-2.27-0.42c-10.04-2.12-18.35-4.77-24.95-7.95
			c-6.6-3.18-12.2-8.75-16.8-16.72c-4.61-7.97-6.91-19.28-6.91-33.92v-0.14c0-12.99,2.17-24.09,6.49-33.3
			c4.33-9.21,10.62-16.24,18.87-21.07c8.25-4.84,18.21-7.25,29.9-7.25c5.36,0,10.84,0.83,16.44,2.49c5.6,1.66,11.08,4.05,16.44,7.19
			c5.36,3.13,10.45,6.91,15.26,11.33L554.4,602.2c-5.77-5.34-11.8-9.49-18.09-12.44c-6.29-2.95-12.32-4.42-18.09-4.42
			c-8.66,0-15.36,1.91-20.1,5.73c-4.74,3.82-7.11,9.19-7.11,16.1v0.14c0,5.8,1.24,10.39,3.71,13.75c2.47,3.36,5.53,5.83,9.18,7.39
			c3.64,1.57,8.76,3.23,15.36,4.97c0.27,0.09,0.55,0.16,0.82,0.21c0.27,0.05,0.55,0.12,0.82,0.21c0.41,0.09,0.81,0.21,1.19,0.35
			c0.38,0.14,0.77,0.25,1.19,0.35c9.48,2.49,17.4,5.5,23.76,9.05c6.36,3.55,11.67,9.26,15.93,17.13c4.26,7.88,6.39,18.63,6.39,32.27
			v0.28c0,12.81-2.23,23.77-6.7,32.89c-4.47,9.12-10.98,16.08-19.54,20.87c-8.56,4.79-18.85,7.19-30.88,7.19
			C505.09,754.2,498.09,753.23,491.26,751.3z"/>
		<path d="M596.18,551.21h28.25v200.92h-28.25V551.21z M609.27,634.26h87.32v36.48h-87.32V634.26z M678.24,551.21h28.25v200.92
			h-28.25V551.21z"/>
		<path d="M824.42,751.3c-6.84-1.93-13.26-4.77-19.28-8.5c-6.01-3.73-11.39-8.22-16.13-13.47l13.09-31.23
			c5.77,6.36,12.44,11.26,20,14.72c7.56,3.46,15.32,5.18,23.3,5.18c9.21,0,16.36-2.09,21.44-6.29c5.08-4.19,7.63-10.11,7.63-17.76
			v-0.14c0-5.34-1.13-9.58-3.4-12.71c-2.27-3.13-5.22-5.43-8.87-6.91c-3.64-1.47-8.32-2.81-14.02-4.01
			c-0.21-0.09-0.4-0.14-0.57-0.14c-0.17,0-0.36-0.04-0.57-0.14l-2.27-0.42c-10.04-2.12-18.35-4.77-24.95-7.95
			c-6.6-3.18-12.2-8.75-16.8-16.72c-4.61-7.97-6.91-19.28-6.91-33.92v-0.14c0-12.99,2.17-24.09,6.49-33.3
			c4.33-9.21,10.62-16.24,18.87-21.07c8.25-4.84,18.21-7.25,29.9-7.25c5.36,0,10.84,0.83,16.44,2.49c5.6,1.66,11.08,4.05,16.44,7.19
			c5.36,3.13,10.45,6.91,15.26,11.33l-11.96,32.06c-5.77-5.34-11.8-9.49-18.09-12.44c-6.29-2.95-12.32-4.42-18.09-4.42
			c-8.66,0-15.36,1.91-20.1,5.73c-4.74,3.82-7.11,9.19-7.11,16.1v0.14c0,5.8,1.24,10.39,3.71,13.75c2.47,3.36,5.53,5.83,9.18,7.39
			c3.64,1.57,8.76,3.23,15.36,4.97c0.27,0.09,0.55,0.16,0.82,0.21c0.27,0.05,0.55,0.12,0.82,0.21c0.41,0.09,0.81,0.21,1.19,0.35
			c0.38,0.14,0.77,0.25,1.19,0.35c9.48,2.49,17.4,5.5,23.76,9.05c6.36,3.55,11.67,9.26,15.93,17.13c4.26,7.88,6.39,18.63,6.39,32.27
			v0.28c0,12.81-2.23,23.77-6.7,32.89c-4.47,9.12-10.98,16.08-19.54,20.87c-8.56,4.79-18.85,7.19-30.88,7.19
			C838.25,754.2,831.25,753.23,824.42,751.3z"/>
		<path d="M929.33,551.21h28.25v200.92h-28.25V551.21z M939.54,551.21h90.21v36.48h-90.21V551.21z M939.54,634.12h78.86v36.48
			h-78.86V634.12z M939.54,715.65h90.21v36.48h-90.21V715.65z"/>
		<path d="M1056.57,551.21h34.54l55.77,153.94l-2.47,3.59V551.21h27.01v200.78h-34.74l-55.57-151.59l2.47-3.59v155.18h-27.01V551.21
			z"/>
		<path d="M1205.46,551.21h28.25v200.92h-28.25V551.21z M1219.69,715.65h35.98c9.28,0,16.46-2.99,21.55-8.98
			c5.08-5.99,7.63-14.46,7.63-25.43V622.1c0-10.96-2.54-19.44-7.63-25.43c-5.09-5.99-12.27-8.98-21.55-8.98h-35.98v-36.48h35.36
			c12.51,0,23.18,2.81,32.01,8.43c8.83,5.62,15.55,13.82,20.15,24.6c4.6,10.78,6.91,23.77,6.91,38.97v56.93
			c0,14.46-2.22,27.08-6.65,37.86c-4.43,10.78-11.08,19.16-19.95,25.15c-8.87,5.99-19.73,8.98-32.58,8.98h-35.26V715.65z"/>
		<path d="M1434.14,585.2l-61.65,130.45h63.71v36.48h-97.32v-33.99l61.65-130.45h-59.79v-36.48h93.4V585.2z"/>
		<path d="M1483.96,745.43c-8.18-5.85-14.4-14.37-18.66-25.56c-4.26-11.19-6.39-24.67-6.39-40.42V551.21h28.25v129.2
			c0,11.52,2.3,20.45,6.91,26.81c4.6,6.36,11.1,9.54,19.48,9.54c8.45,0,15-3.18,19.64-9.54c4.64-6.36,6.96-15.29,6.96-26.81v-129.2
			h28.25v128.23c0,15.75-2.15,29.23-6.44,40.42c-4.3,11.19-10.55,19.71-18.76,25.56c-8.21,5.85-18.09,8.77-29.64,8.77
			C1502,754.2,1492.14,751.28,1483.96,745.43z"/>
		<path d="M1600.37,551.21h28.25v200.92h-28.25V551.21z M1612.95,715.65h87.83v36.48h-87.83V715.65z"/>
	</g>
</g>
<line class="st0" x1="41.05" y1="834.49" x2="1867.39" y2="834.49"/>
<line class="st0" x1="41.05" y1="886.3" x2="1867.39" y2="886.3"/>
<line class="st0" x1="41.05" y1="938.11" x2="1867.39" y2="938.11"/>
<line class="st0" x1="41.05" y1="989.93" x2="1867.39" y2="989.93"/>
</svg>
