<?xml version="1.0" encoding="utf-8"?>
<!-- Generator: Adobe Illustrator 26.0.1, SVG Export Plug-In . SVG Version: 6.00 Build 0)  -->
<svg version="1.1" id="Capa_1" xmlns="http://www.w3.org/2000/svg" xmlns:xlink="http://www.w3.org/1999/xlink" x="0px" y="0px"
	 viewBox="0 0 1920 1080" style="enable-background:new 0 0 1920 1080;" xml:space="preserve">
<style type="text/css">
	.st0{fill:none;stroke:#000000;stroke-width:15;stroke-linecap:round;stroke-linejoin:round;stroke-miterlimit:10;}
	.st1{fill:#FFFFFF;stroke:#000000;stroke-width:4;stroke-linecap:round;stroke-linejoin:round;stroke-miterlimit:10;}
</style>
<g>
	<polyline class="st0" points="689.64,143.75 798.98,24.38 908.32,143.75 	"/>
	<polyline class="st0" points="689.64,238.83 798.98,119.46 908.32,238.83 	"/>
	<polyline class="st0" points="689.64,333.9 798.98,214.53 908.32,333.9 	"/>
	<polyline class="st0" points="689.64,428.98 798.98,309.61 908.32,428.98 	"/>
	<line class="st0" x1="798.98" y1="37.66" x2="798.98" y2="513.24"/>
	<g>
		<path class="st0" d="M332.5,354.96"/>
		<path class="st0" d="M332.5,354.96"/>
	</g>
	<polyline class="st0" points="1310.6,145.23 1419.94,25.86 1529.28,145.23 	"/>
	<polyline class="st0" points="1310.6,240.3 1419.94,120.93 1529.28,240.3 	"/>
	<polyline class="st0" points="1310.6,335.38 1419.94,216.01 1529.28,335.38 	"/>
	<line class="st0" x1="1419.94" y1="25.86" x2="1419.94" y2="514.72"/>
	<polyline class="st0" points="1000.12,238.83 1109.46,119.46 1218.8,238.83 	"/>
	<polyline class="st0" points="1000.12,333.9 1109.46,214.53 1218.8,333.9 	"/>
	<polyline class="st0" points="1000.12,428.98 1109.46,309.61 1218.8,428.98 	"/>
	<line class="st0" x1="1109.46" y1="119.46" x2="1109.46" y2="513.24"/>
	<polyline class="st0" points="379.16,333.9 488.5,214.53 597.83,333.9 	"/>
	<polyline class="st0" points="379.16,428.98 488.5,309.61 597.83,428.98 	"/>
	<line class="st0" x1="488.5" y1="222.75" x2="488.5" y2="513.24"/>
</g>
<path class="st1" d="M155.82,781.04"/>
<path class="st1" d="M155.82,904.3"/>
<path class="st1" d="M270.83,643.48"/>
<path class="st1" d="M155.82,842.67"/>
<path class="st1" d="M41.05,374.78"/>
<line class="st0" x1="41.05" y1="522.54" x2="1867.39" y2="522.54"/>
<g>
	<g>
		<path d="M125.93,765.1c-8.13-4.42-14.46-10.66-18.97-18.73l26.15-20.77c2.8,3.91,6.17,6.93,10.1,9.05
			c3.93,2.12,8.03,3.19,12.31,3.19c6.15,0,10.89-2.36,14.24-7.07c3.34-4.72,5.02-11.36,5.02-19.95V584.52h33.15v126.42
			c0,12.83-2.12,23.79-6.36,32.88c-4.24,9.09-10.41,16.02-18.5,20.77c-8.09,4.76-17.86,7.14-29.3,7.14
			C143.34,771.73,134.06,769.52,125.93,765.1z"/>
		<path d="M274.85,763.25c-9.38-5.65-16.63-13.64-21.77-23.96c-5.14-10.32-7.7-22.28-7.7-35.87v-52.51c0-13.59,2.57-25.55,7.7-35.88
			c5.14-10.32,12.39-18.31,21.77-23.96c9.38-5.65,20.21-8.47,32.51-8.47c12.29,0,23.13,2.83,32.51,8.47
			c9.38,5.65,16.63,13.64,21.77,23.96c5.14,10.32,7.7,22.28,7.7,35.88v52.51c0,13.59-2.57,25.55-7.7,35.87
			c-5.14,10.32-12.39,18.31-21.77,23.96c-9.38,5.65-20.21,8.48-32.51,8.48C295.06,771.73,284.22,768.91,274.85,763.25z
			 M322.53,732.8c4.36-2.68,7.72-6.48,10.1-11.41c2.37-4.93,3.56-10.62,3.56-17.08v-54.29c0-6.46-1.19-12.15-3.56-17.08
			c-2.38-4.93-5.74-8.73-10.1-11.41c-4.36-2.68-9.42-4.01-15.17-4.01c-5.76,0-10.82,1.34-15.18,4.01
			c-4.36,2.68-7.72,6.48-10.1,11.41c-2.38,4.93-3.56,10.62-3.56,17.08v54.29c0,6.46,1.19,12.15,3.56,17.08
			c2.37,4.93,5.74,8.73,10.1,11.41c4.36,2.68,9.42,4.01,15.18,4.01C313.11,736.81,318.17,735.47,322.53,732.8z"/>
		<path d="M436.37,769.05c-7.74-1.78-15.02-4.4-21.83-7.84c-6.81-3.44-12.9-7.58-18.27-12.42l14.82-28.8
			c6.54,5.86,14.08,10.39,22.65,13.57c8.56,3.19,17.35,4.78,26.38,4.78c10.43,0,18.52-1.93,24.28-5.8
			c5.76-3.87,8.64-9.32,8.64-16.38v-0.13c0-4.93-1.28-8.83-3.85-11.72c-2.57-2.89-5.92-5.01-10.04-6.37
			c-4.13-1.36-9.42-2.59-15.88-3.7c-0.23-0.08-0.45-0.13-0.64-0.13c-0.2,0-0.41-0.04-0.64-0.13l-2.57-0.38
			c-11.36-1.95-20.78-4.4-28.25-7.33c-7.47-2.93-13.81-8.07-19.03-15.42c-5.21-7.35-7.82-17.78-7.82-31.29v-0.13
			c0-11.98,2.45-22.22,7.35-30.71c4.9-8.5,12.02-14.97,21.36-19.43c9.34-4.46,20.62-6.69,33.85-6.69c6.07,0,12.27,0.76,18.62,2.29
			c6.34,1.53,12.55,3.74,18.62,6.63c6.07,2.89,11.83,6.37,17.28,10.45l-13.54,29.57c-6.54-4.93-13.37-8.75-20.49-11.47
			c-7.12-2.72-13.95-4.08-20.49-4.08c-9.81,0-17.39,1.76-22.76,5.29c-5.37,3.53-8.05,8.47-8.05,14.85v0.13
			c0,5.35,1.4,9.58,4.2,12.68c2.8,3.1,6.26,5.37,10.39,6.82c4.12,1.45,9.92,2.98,17.39,4.59c0.31,0.09,0.62,0.15,0.93,0.19
			c0.31,0.04,0.62,0.11,0.93,0.19c0.47,0.09,0.91,0.19,1.34,0.32c0.43,0.13,0.88,0.24,1.34,0.32c10.74,2.29,19.71,5.08,26.91,8.35
			c7.2,3.27,13.21,8.54,18.03,15.8c4.82,7.26,7.24,17.18,7.24,29.76v0.25c0,11.81-2.53,21.92-7.59,30.33
			c-5.06,8.41-12.43,14.83-22.12,19.24c-9.69,4.42-21.34,6.63-34.96,6.63C452.03,771.73,444.11,770.84,436.37,769.05z"/>
		<path d="M557.56,584.52h31.98v185.3h-31.98V584.52z M572.38,661.11h98.87v33.64h-98.87V661.11z M650.48,584.52h31.98v185.3h-31.98
			V584.52z"/>
		<path d="M820.78,769.05c-7.74-1.78-15.02-4.4-21.83-7.84c-6.81-3.44-12.9-7.58-18.27-12.42l14.82-28.8
			c6.54,5.86,14.08,10.39,22.65,13.57c8.56,3.19,17.35,4.78,26.38,4.78c10.43,0,18.52-1.93,24.28-5.8
			c5.76-3.87,8.64-9.32,8.64-16.38v-0.13c0-4.93-1.28-8.83-3.85-11.72c-2.57-2.89-5.92-5.01-10.04-6.37
			c-4.13-1.36-9.42-2.59-15.88-3.7c-0.23-0.08-0.45-0.13-0.64-0.13c-0.2,0-0.41-0.04-0.64-0.13l-2.57-0.38
			c-11.36-1.95-20.78-4.4-28.25-7.33c-7.47-2.93-13.81-8.07-19.03-15.42c-5.21-7.35-7.82-17.78-7.82-31.29v-0.13
			c0-11.98,2.45-22.22,7.35-30.71c4.9-8.5,12.02-14.97,21.36-19.43c9.34-4.46,20.62-6.69,33.85-6.69c6.07,0,12.27,0.76,18.62,2.29
			c6.34,1.53,12.55,3.74,18.62,6.63c6.07,2.89,11.83,6.37,17.28,10.45l-13.54,29.57c-6.54-4.93-13.37-8.75-20.49-11.47
			c-7.12-2.72-13.95-4.08-20.49-4.08c-9.81,0-17.39,1.76-22.76,5.29c-5.37,3.53-8.05,8.47-8.05,14.85v0.13
			c0,5.35,1.4,9.58,4.2,12.68c2.8,3.1,6.26,5.37,10.39,6.82c4.12,1.45,9.92,2.98,17.39,4.59c0.31,0.09,0.62,0.15,0.93,0.19
			c0.31,0.04,0.62,0.11,0.93,0.19c0.47,0.09,0.91,0.19,1.34,0.32c0.43,0.13,0.88,0.24,1.34,0.32c10.74,2.29,19.71,5.08,26.91,8.35
			c7.2,3.27,13.21,8.54,18.03,15.8c4.82,7.26,7.24,17.18,7.24,29.76v0.25c0,11.81-2.53,21.92-7.59,30.33
			c-5.06,8.41-12.43,14.83-22.12,19.24c-9.69,4.42-21.34,6.63-34.96,6.63C836.44,771.73,828.52,770.84,820.78,769.05z"/>
		<path d="M941.97,584.52h31.98v185.3h-31.98V584.52z M953.53,584.52h102.14v33.64H953.53V584.52z M953.53,660.98h89.3v33.64h-89.3
			V660.98z M953.53,736.17h102.14v33.64H953.53V736.17z"/>
		<path d="M1088.43,584.52h39.1l63.15,141.97l-2.8,3.31V584.52h30.58v185.17h-39.34l-62.92-139.8l2.8-3.31v143.12h-30.58V584.52z"/>
		<path d="M1340.19,686.6v33.64h-83.11V686.6H1340.19z"/>
	</g>
</g>
<line class="st0" x1="41.05" y1="888.49" x2="1867.39" y2="888.49"/>
<line class="st0" x1="41.05" y1="940.3" x2="1867.39" y2="940.3"/>
<line class="st0" x1="41.05" y1="992.11" x2="1867.39" y2="992.11"/>
<line class="st0" x1="41.05" y1="1043.93" x2="1867.39" y2="1043.93"/>
</svg>
